<svg id="Capa_1" data-name="Capa 1" xmlns="http://www.w3.org/2000/svg" viewBox="0 0 121 67"><defs><style>.cls-1{fill:#826370;}.cls-2{fill:#6f4a59;}.cls-3{fill:#504340;}.cls-4{fill:#f1b236;}.cls-5{fill:#da9022;}.cls-6{fill:#241410;}.cls-7{fill:#bfc2c3;}.cls-8{fill:#545c5e;}.cls-9{fill:#324374;}.cls-10{fill:#6f7c9d;}.cls-11{fill:#d58d45;}</style></defs><title>construcción</title><g id="Capa_2" data-name="Capa 2"><g id="elementos"><polygon class="cls-1" points="91.85 46.88 31.3 46.88 31.3 25.12 91.85 29.63 91.85 46.88"/><rect class="cls-2" x="31.3" y="40.02" width="60.55" height="6.85"/><polygon class="cls-3" points="91.85 31.66 83.17 31.66 83.17 29.63 77.08 29.63 77.08 31.66 31.3 31.66 31.3 33.49 77.08 33.49 77.08 38.24 83.17 38.24 83.17 33.49 91.85 33.49 91.85 31.66"/><polygon class="cls-4" points="107.53 9.34 89.38 9.34 81.96 25.28 81.96 46.88 113.98 46.88 114.25 46.88 120.1 46.88 120.1 26.49 107.53 9.34"/><rect class="cls-5" x="81.96" y="30.5" width="38.14" height="16.39"/><path class="cls-6" d="M113.26,50.48A16.31,16.31,0,1,1,97,34a16.37,16.37,0,0,1,16.31,16.44Z"/><path class="cls-7" d="M105.24,50.48A8.29,8.29,0,1,1,97,42.14a8.32,8.32,0,0,1,8.29,8.34Z"/><path class="cls-6" d="M51.71,50.48a16.41,16.41,0,1,1,0-.07Z"/><path class="cls-7" d="M43.69,50.48a8.34,8.34,0,1,1,0-.06Z"/><path class="cls-8" d="M100.63,50.48A3.68,3.68,0,1,1,97,46.78h0A3.69,3.69,0,0,1,100.63,50.48Z"/><path class="cls-8" d="M39.08,50.48a3.7,3.7,0,1,1,0-.06Z"/><path class="cls-9" d="M114.15,25.26H98.39V13.91H108l7,9.66a1.07,1.07,0,0,1-.26,1.49A1.09,1.09,0,0,1,114.15,25.26Z"/><polygon class="cls-10" points="108.63 14.81 98.39 20.49 98.39 24 110.21 17 108.63 14.81"/><polygon class="cls-10" points="112.53 20.17 103.34 25.28 106.23 25.28 113.22 21.13 112.53 20.17"/><polygon class="cls-4" points="4.91 10 0.29 17.85 54.69 36.94 71.35 36.94 89.06 5.63 120.96 5.63 120.96 0.04 84.28 0.04 70.51 10 4.91 10"/><polygon class="cls-11" points="56.94 14.09 49.21 30.45 54.97 32.42 64.08 14.09 56.94 14.09"/><polygon class="cls-11" points="12.88 14.09 11.02 17.32 23.2 21.51 26.88 14.09 12.88 14.09"/><polygon class="cls-11" points="32.13 14.09 27.87 23.11 33.8 25.15 39.29 14.09 32.13 14.09"/><polygon class="cls-11" points="44.54 14.09 38.54 26.77 44.35 28.77 51.66 14.09 44.54 14.09"/><polygon class="cls-11" points="69.29 14.09 60.48 32.57 69.28 32.57 79.29 14.09 69.29 14.09"/><polygon class="cls-4" points="26.88 14.09 23.2 21.51 27.87 23.11 32.13 14.09 26.88 14.09"/><polygon class="cls-4" points="39.29 14.09 33.8 25.15 38.54 26.77 44.54 14.09 39.29 14.09"/><polygon class="cls-4" points="51.66 14.09 44.35 28.77 49.21 30.45 56.94 14.09 51.66 14.09"/><polygon class="cls-4" points="64.08 14.09 54.97 32.42 55.4 32.57 60.48 32.57 69.29 14.09 64.08 14.09"/><rect class="cls-6" x="98.39" y="27.84" width="5.74" height="1.79"/></g></g></svg>