<svg id="Capa_1" data-name="Capa 1" xmlns="http://www.w3.org/2000/svg" viewBox="0 0 121 67"><defs><style>.cls-1{fill:#303030;}.cls-2{fill:#37354d;opacity:0.4;}.cls-2,.cls-4{isolation:isolate;}.cls-3{fill:#fff;}.cls-4{fill:#bec3c7;opacity:0.5;}.cls-5{fill:#ed1c24;}.cls-6{fill:#fbb040;}</style></defs><title>desarrollo</title><g id="Capa_2" data-name="Capa 2"><g id="elementos"><g id="_Grupo_" data-name=" Grupo "><path id="_Trazado_" data-name=" Trazado " class="cls-1" d="M104.13,63a3.82,3.82,0,0,1-3.78,3.81l-79.45.31a3.8,3.8,0,0,1-3.8-3.78L16.87,5.42a3.82,3.82,0,0,1,3.78-3.81L100.1,1.3a3.8,3.8,0,0,1,3.8,3.78Z"/><path id="_Trazado_2" data-name=" Trazado 2" class="cls-2" d="M100.88,60.85a2.25,2.25,0,0,1-2.24,2.25l-76,.29a2.24,2.24,0,0,1-2.26-2.22l-.19-49.61a2.24,2.24,0,0,1,2.19-2.25L98.4,9a2.26,2.26,0,0,1,2.25,2.23Z"/><path id="_Trazado_3" data-name=" Trazado 3" class="cls-3" d="M100.87,59.78A2.24,2.24,0,0,1,98.64,62h0l-76.06.3a2.25,2.25,0,0,1-2.25-2.23l-.19-49.62a2.25,2.25,0,0,1,2.19-2.25l76.1-.29a2.23,2.23,0,0,1,2.25,2.23h0Z"/><path id="_Trazado_compuesto_" data-name=" Trazado compuesto " class="cls-4" d="M95.1,16.7v-.22l-71.91.28v.39h5.68v5.64H23.24v.38h5.67v5.63H23.24v.39h5.68v5.64H23.24v.38h5.67v5.65l-5.67,0v.38h5.67v5.65H23.24v.34h5.68v5.64H23.25v.38h5.67V58.8h.38V53.21h5.64V58.8h.38V53.21H41V58.8h.49V53.21h5.63V58.8h.38V53.21H53.1V58.8h.38V53.21h5.65V58.8h.38V53.21h5.63V58.8h.38V53.21h5.65V58.8h.38V53.21h5.64V58.8h.38V53.21H83.2v5.58h.39V53.2h5.63v5.59h.38V53.2h5.46v5.59h.39l-.17-41.88ZM53.36,29.06H59v5.63H53.36ZM53,34.69H47.37V29.05H53ZM59.38,29H65v5.64H59.39Zm6,0H71v5.64H65.4Zm6,0h5.64v5.64H71.42Zm6,0h5.64v5.64H77.44Zm0-.38V23h5.64v5.64Zm-.37,0H71.42V23h5.64Zm-6,0H65.41V23H71Zm-6,0H59.39V23H65Zm-6,0H53.37V23H59Zm-6,0H47.36V23H53Zm-6,0H41.34V23H47ZM47,29v5.64H41.34V29Zm0,6v5.63H41.34V35.05Zm.39,0H53v5.64H47.36Zm6,0H59v5.64H53.37Zm6,0H65v5.63H59.38Zm6,0H71v5.64H65.4Zm6,0h5.64v5.63H71.42Zm6,0h5.64v5.64H77.44Zm6,0h5.63v5.63H83.46Zm0-.38V29h5.63v5.64Zm0-6V23h5.63v5.64Zm0-6V17H89.1v5.64Zm-.38,0H77.44V17h5.64Zm-6,0-5.66,0V17H77Zm-6,0H65.4V17H71Zm-6,0H59.39V17H65Zm-6,0H53.36V17H59Zm-6,0H47.36V17H53Zm-6,0H41.33V17H47Zm-6,0H35.31V17H41ZM41,23v5.64H35.31V23Zm0,6v5.64H35.3V29Zm0,6v5.64H35.31V35.06Zm0,6V46.7H35.3V41.06Zm.38,0H47V46.7H41.32Zm6,0H53V46.7H47.36Zm6,0H59V46.7H53.36Zm6,0H65V46.7H59.39Zm6,0H71v5.65H65.41Zm6,0h5.64V46.7H71.42Zm6,0h5.64v5.65H77.44Zm6,0h5.63V46.7H83.46Zm6,0h5.46V46.7H89.48Zm0-.38V35.05h5.46v5.64Zm0-6V29h5.46v5.64Zm0-6V23h5.46v5.64Zm0-6V17h5.46v5.63ZM29.25,17.15h5.63v5.64H29.25Zm0,6h5.64V28.8H29.26Zm0,6h5.63v5.63H29.25Zm0,6h5.64v5.64l-5.55,0Zm0,6h5.63v5.63H29.24Zm0,11.66V47.25h5.65v5.63Zm6,0V47.25H41v5.63Zm6,0,.12-5.69h5.63v5.64Zm6,0V47.25H53v5.64Zm6,0V47.24H59v5.63Zm6,0V47.25H65v5.64Zm6,0V47.25H71v5.63Zm6.09-.23V47h5.63v5.63Zm6,0V47h5.65v5.63Zm6,0V47h5.64v5.63Zm6,0V47H95v5.63Z"/><polygon id="_Trazado_4" data-name=" Trazado 4" class="cls-5" points="23.54 58.78 23.38 16.76 23 16.76 23.16 58.78 23.16 58.97 23.16 59.16 95.44 58.88 95.44 58.5 23.54 58.78"/><g id="_Grupo_2" data-name=" Grupo 2"><path id="_Trazado_5" data-name=" Trazado 5" class="cls-5" d="M23.73,59h-.19a.39.39,0,0,1-.14-.52l4-7a.39.39,0,0,1,.64,0l2.19,3,5.06-9.72a.43.43,0,0,1,.13-.14l6.11-3.91a.37.37,0,0,1,.45,0l6.66,5.47,3-7.11a.36.36,0,0,1,.29-.21.34.34,0,0,1,.35.18l2.89,3,5.29-10a.4.4,0,0,1,.32-.2.37.37,0,0,1,.34.17l4.71,7.19,2.55-5.38a.47.47,0,0,1,.13-.15l4.29-3a.39.39,0,0,1,.33-.06l7.28,2.28,7.07-10.53a.38.38,0,0,1,.53-.1.36.36,0,0,1,.12.51v0L80.93,33.45a.38.38,0,0,1-.43.15l-7.35-2.34L69.1,34.1,66.3,40a.4.4,0,0,1-.32.22.4.4,0,0,1-.35-.17l-4.72-7.21-5.24,9.89a.4.4,0,0,1-.29.2.43.43,0,0,1-.28-.11l-2.89-2.91-3,7a.44.44,0,0,1-.27.21.37.37,0,0,1-.33-.08l-6.83-5.61L36,45.15,30.66,55.32a.36.36,0,0,1-.3.2.42.42,0,0,1-.35-.15l-2.22-3-3.73,6.54A.42.42,0,0,1,23.73,59Z"/><g id="_Grupo_3" data-name=" Grupo 3"><polygon id="_Trazado_6" data-name=" Trazado 6" class="cls-5" points="89.36 24.26 89.67 19.72 85.58 21.72 89.36 24.26"/></g></g><path id="_Trazado_7" data-name=" Trazado 7" class="cls-4" d="M51,6.11a1.37,1.37,0,0,0-.29.8v4a1.35,1.35,0,0,0,1.36,1.34h0l16.68-.06a1.35,1.35,0,0,0,1.33-1.35v-4A1.2,1.2,0,0,0,69.8,6Z"/><path id="_Trazado_compuesto_2" data-name=" Trazado compuesto 2" class="cls-6" d="M68.76,4.69H66V2.59A2.9,2.9,0,0,0,63-.14H57.78a2.9,2.9,0,0,0-3,2.78V4.72H52.06a1.36,1.36,0,0,0-1.34,1.35v4a1.36,1.36,0,0,0,1.35,1.34l16.69,0a1.36,1.36,0,0,0,1.33-1.36V6A1.34,1.34,0,0,0,68.76,4.69ZM60.37,1a1.64,1.64,0,1,1-1.64,1.64A1.63,1.63,0,0,1,60.37,1h0Z"/></g></g></g></svg>