<svg id="Capa_1" data-name="Capa 1" xmlns="http://www.w3.org/2000/svg" viewBox="0 0 121 67"><defs><style>.cls-1{fill:#241410;}.cls-2{fill:#724e5c;}.cls-3{fill:#886b77;}.cls-4{fill:#6f4a59;}.cls-5{fill:#917680;}.cls-6{fill:#a9939c;}.cls-7{fill:#e2ad79;}.cls-8{fill:#c7904a;}.cls-9{fill:#f1b236;}.cls-10{fill:#ca9721;}.cls-11{fill:#4d403d;}.cls-12{fill:#2da79d;}.cls-13{fill:#15938e;}</style></defs><title>equipo</title><g id="Capa_2" data-name="Capa 2"><g id="elementos"><path class="cls-1" d="M70.73,37.35h0a1.24,1.24,0,0,1-1.26-1.21L68,26.34l3.79.93L72,36.09a1.24,1.24,0,0,1-1.22,1.26Z"/><path class="cls-2" d="M79.41,32.1l-12.82-4a2.61,2.61,0,0,1-1.84-2.67v-.05A2.61,2.61,0,0,1,67.43,23l13.41.41Z"/><path class="cls-3" d="M85,27.61c-.11,4.48-3.15,8-6.79,8s-6.53-3.79-6.41-8.28,3.14-8,6.79-8S85.07,23.12,85,27.61Z"/><path class="cls-4" d="M83.43,27.52c-.08,3.47-1.82,6.25-3.91,6.19s-3.7-2.9-3.63-6.36,1.84-6.27,3.92-6.2S83.52,24.05,83.43,27.52Z"/><path class="cls-5" d="M80,29.74s-3.4.24-3.79.23a12.21,12.21,0,0,1-.37-2.75,12.08,12.08,0,0,1,.6-2.79L80,25.52A9.69,9.69,0,0,1,80,29.74Z"/><path class="cls-6" d="M81.37,27.69c-.05,1.17-.73,2.09-1.56,2.06s-1.45-1-1.4-2.18.72-2.09,1.55-2.06S81.41,26.52,81.37,27.69Z"/><rect class="cls-7" x="51.81" y="23.13" width="6.82" height="11.63"/><path class="cls-8" d="M51.81,23.13v7.44a10.08,10.08,0,0,0,6.81,0V23.13Z"/><path class="cls-9" d="M67,57V33.78a2,2,0,0,0-2-2H45.46a5.42,5.42,0,0,1-2,2.18V57Z"/><path class="cls-10" d="M64.92,31.76H63.26V57H67l1.28-21.11v-.72A4,4,0,0,0,64.92,31.76Z"/><path class="cls-11" d="M67,57.68V43.34s-1.64-10.55-2-11.61H60.49l.64,11H53.07L50,31.76h-4.6a5.62,5.62,0,0,1-1.92,2.61V57.68Z"/><rect class="cls-1" x="43.49" y="55.41" width="23.45" height="2.82"/><path class="cls-9" d="M43.2,63.41h.24V44l2.13-12.22h-.11A9.43,9.43,0,0,0,36,41.19V63.87H43.2Z"/><path class="cls-7" d="M43.2,63.41h.22v-.14H36A3.7,3.7,0,0,0,43.2,64.5Z"/><path class="cls-9" d="M67,35.25V53.94a3.63,3.63,0,0,0,3.62,3.63h.08a3.63,3.63,0,0,0,3.62-3.63V35.25Z"/><path class="cls-7" d="M67,35.54a3.7,3.7,0,0,1,7.4,0Z"/><path class="cls-8" d="M74.27,34.86a3.55,3.55,0,0,1,.08.73H67a3.54,3.54,0,0,1,.07-.73Z"/><path class="cls-8" d="M43.2,63.41h.22v-.14H36a3.45,3.45,0,0,0,.08.72H43.2Z"/><path class="cls-7" d="M55.22,9.22a10.15,10.15,0,0,0-10,8.56A2.18,2.18,0,0,0,44,19.92a2.11,2.11,0,0,0,1.5,2.21A10.15,10.15,0,1,0,55.22,9.22Z"/><path class="cls-1" d="M55.22,7C49,7,44.57,12,44.57,18.22a1.17,1.17,0,0,1,1.11-.36c1.73.31.93,2.36.92,2.44l1.2.28c1.24-4,3.63-7.16,7.42-7.16.92,0,4.61,2.74,6.43,2.74,2.22,0,4-1.39,4-3.11C65.67,8,58.16,7,55.22,7Z"/><path class="cls-12" d="M67.85,13c.06-.45-1.5-1.24-1.5-1.24C66.35,5.3,61.7.05,55.22.05S44.08,5.3,44.08,11.78c0,.46-.56.91-.51,1.36l15.48,4.54Z"/><path class="cls-13" d="M60,15c-5.18.39-14.33-1-15.87-3.33a3.34,3.34,0,0,0-.6,1.85c0,1.4,7.15,2.68,8.78,3.69,0,0-.91,2.17,7.92,2.17,9.14,0,12.1-6.06,6.16-7.73C67,12.79,66.68,14.5,60,15Z"/></g></g></svg>